<?xml version="1.0" standalone="no"?><!DOCTYPE svg PUBLIC "-//W3C//DTD SVG 1.1//EN" "http://www.w3.org/Graphics/SVG/1.1/DTD/svg11.dtd"><svg t="1588434440921" class="icon" viewBox="0 0 1024 1024" version="1.1" xmlns="http://www.w3.org/2000/svg" p-id="2845" xmlns:xlink="http://www.w3.org/1999/xlink" width="200" height="200"><defs><style type="text/css"></style></defs><path d="M863.2 592.8h-272c-4.8 0-9.6-2.4-12.8-5.6L512 504.8l-67.2 82.4c-3.2 4-7.2 5.6-12.8 5.6H160C73.6 592.8 3.2 522.4 3.2 436 3.2 355.2 64.8 288.8 143.2 280c-8.8-23.2-12.8-47.2-12.8-72C131.2 96 222.4 4 335.2 4c39.2 0 76.8 11.2 109.6 32 25.6-16 54.4-24.8 84.8-24.8 64 0 121.6 39.2 145.6 98.4 16.8-6.4 35.2-9.6 53.6-9.6 86.4 0 156.8 70.4 156.8 156.8 0 8-0.8 16.8-1.6 24.8 77.6 9.6 137.6 75.2 137.6 155.2-1.6 85.6-72 156-158.4 156z m-264-32H864c68.8 0 124.8-56 124.8-124.8s-56-124.8-124-124.8h-0.8c-4.8 0-9.6-2.4-12.8-6.4-3.2-4-4-9.6-2.4-14.4 3.2-11.2 4.8-23.2 4.8-35.2 0-68.8-56-124.8-124.8-124.8-20 0-38.4 4.8-56 13.6-4 2.4-9.6 2.4-13.6 0-4-1.6-8-5.6-8.8-10.4-14.4-54.4-64-92-120-92-27.2 0-53.6 8.8-75.2 24.8-5.6 4-13.6 4-19.2 0-29.6-20.8-64-32-100-32-96 1.6-172.8 79.2-172.8 173.6 0 28 6.4 55.2 20 80 2.4 4.8 2.4 11.2-0.8 16-3.2 4.8-8.8 8-14.4 7.2h-7.2c-68.8 0-124.8 56-124.8 124.8s56 124.8 124.8 124.8h264.8l74.4-92c6.4-7.2 18.4-7.2 24.8 0l74.4 92z" p-id="2846" fill="#2c2c2c"></path><path d="M850.4 504H608.8c-4.8 0-8-3.2-8-8s3.2-8 8-8h241.6c38.4 0 68.8-31.2 68.8-68.8 0-4.8 3.2-8 8-8s8 3.2 8 8c0.8 46.4-37.6 84.8-84.8 84.8zM627.2 1020H396.8c-8.8 0-16-7.2-16-16V766.4h-88c-6.4 0-12-3.2-14.4-8.8-2.4-5.6-1.6-12 2.4-16.8l219.2-267.2c6.4-7.2 18.4-7.2 24.8 0L744 740.8c4 4.8 4.8 11.2 2.4 16.8-2.4 5.6-8 8.8-14.4 8.8h-88v237.6c-0.8 8.8-8 16-16.8 16z m-214.4-32h198.4V750.4c0-8.8 7.2-16 16-16h70.4L512 508 326.4 734.4h70.4c8.8 0 16 7.2 16 16v237.6z" p-id="2847" fill="#2c2c2c"></path></svg>