<?xml version="1.0" standalone="no"?><!DOCTYPE svg PUBLIC "-//W3C//DTD SVG 1.1//EN" "http://www.w3.org/Graphics/SVG/1.1/DTD/svg11.dtd"><svg t="1588435091209" class="icon" viewBox="0 0 1024 1024" version="1.1" xmlns="http://www.w3.org/2000/svg" p-id="8652" xmlns:xlink="http://www.w3.org/1999/xlink" width="200" height="200"><defs><style type="text/css"></style></defs><path d="M854.9 376.1H160.1c-17.5 0-31.7-14.2-31.7-31.7s14.2-31.7 31.7-31.7h694.8c17.5 0 31.7 14.2 31.7 31.7s-14.2 31.7-31.7 31.7z" fill="#2c2c2c" p-id="8653"></path><path d="M880 869H150.8c-17.5 0-31.7-14.2-31.7-31.7V193c0-17.5 14.2-31.7 31.7-31.7H880c17.5 0 31.7 14.2 31.7 31.7v644.3c0 17.6-14.2 31.7-31.7 31.7z m-697.6-63.3h665.9v-581H182.4v581z" fill="#2c2c2c" p-id="8654"></path><path d="M345.1 768.6c-11.5 0-22.6-6.2-28.2-17.2l-74-143.3c-4.7-9.2-4.7-20.1 0.1-29.2l74-141c8.1-15.5 27.3-21.5 42.8-13.3 15.5 8.1 21.5 27.3 13.3 42.8l-66.3 126.4 66.4 128.7c8 15.5 1.9 34.6-13.6 42.7-4.6 2.3-9.6 3.4-14.5 3.4zM701.6 768.6c-4.9 0-9.9-1.1-14.5-3.5-15.5-8-21.7-27.1-13.6-42.7l66.4-128.7-66.3-126.4c-8.1-15.5-2.1-34.6 13.3-42.8 15.5-8.1 34.6-2.1 42.8 13.3l74 141c4.8 9.1 4.8 20.1 0.1 29.2l-74 143.3c-5.7 11-16.8 17.3-28.2 17.3z" fill="#2c2c2c" p-id="8655"></path><path d="M402.8 791.5c-6.3 0-12.7-1.9-18.2-5.8-14.3-10.1-17.7-29.8-7.6-44.1l239.4-339.7c10.1-14.3 29.8-17.7 44.1-7.6s17.7 29.8 7.6 44.1L428.8 778.1c-6.2 8.7-16 13.4-26 13.4zM655.8 300.2h-21.9c-17.5 0-31.7-14.2-31.7-31.7s14.2-31.7 31.7-31.7h21.9c17.5 0 31.7 14.2 31.7 31.7s-14.2 31.7-31.7 31.7zM789.9 300.2H768c-17.5 0-31.7-14.2-31.7-31.7s14.2-31.7 31.7-31.7h21.9c17.5 0 31.7 14.2 31.7 31.7s-14.2 31.7-31.7 31.7z" fill="#2c2c2c" p-id="8656"></path></svg>