<?xml version="1.0" standalone="no"?><!DOCTYPE svg PUBLIC "-//W3C//DTD SVG 1.1//EN" "http://www.w3.org/Graphics/SVG/1.1/DTD/svg11.dtd"><svg t="1588434551406" class="icon" viewBox="0 0 1024 1024" version="1.1" xmlns="http://www.w3.org/2000/svg" p-id="4585" xmlns:xlink="http://www.w3.org/1999/xlink" width="200" height="200"><defs><style type="text/css"></style></defs><path d="M947.2 102.4H76.8c-15.36 0-25.6 10.24-25.6 25.6v768c0 15.36 10.24 25.6 25.6 25.6h870.4c15.36 0 25.6-10.24 25.6-25.6V128c0-15.36-10.24-25.6-25.6-25.6z m-25.6 51.2v512H102.4V153.6h819.2zM102.4 870.4v-153.6h819.2v153.6H102.4z" p-id="4586" fill="#2c2c2c"></path><path d="M537.6 768H179.2c-12.8 0-25.6 12.8-25.6 25.6s12.8 25.6 25.6 25.6h358.4c12.8 0 25.6-12.8 25.6-25.6s-12.8-25.6-25.6-25.6zM844.8 768h-153.6c-12.8 0-25.6 10.24-25.6 25.6 0 12.8 12.8 25.6 25.6 25.6h153.6c12.8 0 25.6-12.8 25.6-25.6 0-15.36-12.8-25.6-25.6-25.6zM179.2 460.8h102.4c10.24 0 17.92-5.12 23.04-15.36l79.36-158.72 156.16 312.32c5.12 7.68 12.8 15.36 23.04 15.36s17.92-5.12 23.04-15.36l104.96-209.92 28.16 56.32c5.12 7.68 12.8 15.36 23.04 15.36h102.4c15.36 0 25.6-10.24 25.6-25.6s-10.24-25.6-25.6-25.6h-87.04l-43.52-87.04c-7.68-17.92-38.4-17.92-46.08 0L563.2 532.48 407.04 220.16c-7.68-17.92-38.4-17.92-46.08 0L266.24 409.6H179.2c-15.36 0-25.6 10.24-25.6 25.6s10.24 25.6 25.6 25.6z" p-id="4587" fill="#2c2c2c"></path></svg>