<?xml version="1.0" standalone="no"?><!DOCTYPE svg PUBLIC "-//W3C//DTD SVG 1.1//EN" "http://www.w3.org/Graphics/SVG/1.1/DTD/svg11.dtd"><svg t="1588434567334" class="icon" viewBox="0 0 1024 1024" version="1.1" xmlns="http://www.w3.org/2000/svg" p-id="5589" xmlns:xlink="http://www.w3.org/1999/xlink" width="200" height="200"><defs><style type="text/css"></style></defs><path d="M938.666667 789.333333v-19.2c0-8.533333-2.133333-17.066667-2.133334-25.6 36.266667-12.8 44.8-55.466667 44.8-91.733333v-14.933333c0-42.666667-61.866667-85.333333-119.466666-93.866667l-89.6-17.066667 68.266666-59.733333c34.133333-29.866667 53.333333-74.666667 53.333334-123.733333 0-76.8-46.933333-140.8-108.8-151.466667L768 149.333333c93.866667 0 170.666667 87.466667 170.666667 196.266667 0 64-27.733333 121.6-68.266667 155.733333 72.533333 12.8 153.6 70.4 153.6 136.533334v14.933333c0 66.133333-27.733333 123.733333-85.333333 136.533333zM665.6 558.933333c108.8 21.333333 230.4 106.666667 230.4 209.066667v21.333333c0 117.333333-53.333333 213.333333-170.666667 213.333334H298.666667c-117.333333 0-170.666667-96-170.666667-213.333334v-21.333333c0-102.4 121.6-187.733333 230.4-209.066667C296.533333 505.6 256 418.133333 256 320c0-164.266667 115.2-298.666667 256-298.666667s256 134.4 256 300.8c0 98.133333-40.533333 183.466667-102.4 236.8zM405.333333 597.333333c-102.4 0-234.666667 83.2-234.666666 170.666667v21.333333c0 51.2 12.8 170.666667 128 170.666667h426.666666c115.2 0 128-119.466667 128-170.666667v-21.333333c0-87.466667-132.266667-170.666667-234.666666-170.666667h-10.666667c-29.866667 12.8-61.866667 21.333333-96 21.333334s-66.133333-8.533333-96-21.333334H405.333333z m106.666667-533.333333c-117.333333 0-213.333333 115.2-213.333333 256s96 256 213.333333 256 213.333333-113.066667 213.333333-256c0-140.8-96-256-213.333333-256z m-110.933333 221.866667c-2.133333 8.533333-10.666667 14.933333-21.333334 14.933333-14.933333 0-23.466667-12.8-21.333333-27.733333 14.933333-53.333333 46.933333-98.133333 85.333333-121.6 14.933333-8.533333 32 2.133333 32 19.2 0 6.4-4.266667 12.8-10.666666 17.066666-27.733333 19.2-53.333333 53.333333-64 98.133334zM128 345.6c0 49.066667 19.2 96 53.333333 123.733333l68.266667 59.733334-89.6 17.066666C104.533333 554.666667 42.666667 597.333333 42.666667 637.866667v14.933333c0 36.266667 8.533333 78.933333 44.8 91.733333 0 8.533333-2.133333 17.066667-2.133334 25.6v19.2c-57.6-12.8-85.333333-70.4-85.333333-136.533333v-14.933333c0-68.266667 81.066667-123.733333 153.6-136.533334-42.666667-36.266667-68.266667-91.733333-68.266667-155.733333C85.333333 236.8 162.133333 149.333333 256 149.333333c0 0-12.8 32-19.2 44.8-61.866667 10.666667-108.8 74.666667-108.8 151.466667z" fill="#2c2c2c" p-id="5590"></path></svg>