<?xml version="1.0" standalone="no"?><!DOCTYPE svg PUBLIC "-//W3C//DTD SVG 1.1//EN" "http://www.w3.org/Graphics/SVG/1.1/DTD/svg11.dtd"><svg t="1588434588547" class="icon" viewBox="0 0 1024 1024" version="1.1" xmlns="http://www.w3.org/2000/svg" p-id="6097" xmlns:xlink="http://www.w3.org/1999/xlink" width="200" height="200"><defs><style type="text/css"></style></defs><path d="M504.896 986.453333a436.394667 436.394667 0 0 1-341.610667-163.797333l16.618667-13.376a415.04 415.04 0 0 0 324.970667 155.84c127.936 0 246.976-57.536 326.634666-157.866667l16.704 13.248c-83.712 105.450667-208.832 165.952-343.317333 165.952zM917.781333 694.954667l-20.074666-7.125334a415.530667 415.530667 0 0 0 23.914666-139.456A415.488 415.488 0 0 0 575.829333 137.642667l3.626667-21.013334a436.885333 436.885333 0 0 1 363.498667 431.786667 436.629333 436.629333 0 0 1-25.173334 146.538667zM91.114667 692.672a437.909333 437.909333 0 0 1-24.32-144.341333c0-216.042667 154.56-397.909333 367.488-432.448l3.413333 21.056C235.136 169.813333 88.128 342.826667 88.128 548.373333c0 46.997333 7.786667 93.205333 23.125333 137.301334l-20.138666 6.997333z" fill="#2c2c2c" p-id="6098"></path><path d="M506.858667 201.365333A81.984 81.984 0 0 1 424.96 119.466667a81.984 81.984 0 0 1 81.898667-81.898667A81.962667 81.962667 0 0 1 588.757333 119.466667a81.962667 81.962667 0 0 1-81.898666 81.898666z m0-142.464c-33.386667 0-60.565333 27.157333-60.565334 60.565334s27.178667 60.565333 60.565334 60.565333 60.565333-27.178667 60.565333-60.565333-27.178667-60.565333-60.565333-60.565334zM886.784 842.453333c-45.162667 0-81.92-36.757333-81.92-81.92s36.757333-81.92 81.92-81.92c45.12 0 81.877333 36.757333 81.877333 81.92s-36.736 81.92-81.877333 81.92z m0-142.485333a60.672 60.672 0 0 0-60.586667 60.586667 60.629333 60.629333 0 0 0 60.586667 60.608 60.608 60.608 0 0 0 0-121.194667zM126.933333 842.453333c-45.162667 0-81.898667-36.757333-81.898666-81.92s36.736-81.92 81.898666-81.92 81.898667 36.757333 81.898667 81.92-36.714667 81.92-81.898667 81.92z m0-142.485333a60.629333 60.629333 0 0 0-60.565333 60.586667 60.650667 60.650667 0 0 0 60.565333 60.608 60.629333 60.629333 0 0 0 0-121.194667zM483.136 559.616a131.050667 131.050667 0 0 1-130.901333-130.901333 131.050667 131.050667 0 0 1 130.901333-130.88 131.029333 131.029333 0 0 1 130.88 130.88 131.050667 131.050667 0 0 1-130.88 130.901333z m0-240.448a109.696 109.696 0 0 0-109.568 109.546667 109.696 109.696 0 0 0 109.568 109.568 109.674667 109.674667 0 0 0 109.546667-109.568 109.653333 109.653333 0 0 0-109.546667-109.546667z" fill="#2c2c2c" p-id="6099"></path><path d="M695.701333 765.397333c-0.96-0.981333-1.749333-2.069333-2.56-3.114666 0.106667 1.92 0.362667 3.754667 0.448 5.717333H277.76c4.16-123.882667 81.216-197.418667 207.914667-197.418667 42.901333 0 80 8.618667 110.613333 24.576 0.938667-0.96 1.450667-2.005333 2.645333-2.944 7.552-5.973333 14.848-9.472 21.802667-11.178666-36.010667-20.586667-79.914667-31.786667-130.090667-31.786667-141.525333 0-234.666667 87.914667-234.666666 229.418667v10.666666h469.333333v-4.352c-10.794667-4.949333-20.736-10.538667-29.610667-19.584z" fill="#2c2c2c" p-id="6100"></path><path d="M714.624 799.872l-5.034667-3.008a389.632 389.632 0 0 1-70.613333-53.781333c-40.405333-39.146667-60.885333-78.912-60.885333-118.208 0-22.378667 6.208-40.448 18.048-52.245334 10.666667-10.773333 25.898667-16.256 45.162666-16.256 15.914667 0 30.613333 5.696 44.885334 17.386667 0.810667 0.64 2.261333 2.005333 4.501333 4.181333l7.68 7.573334c11.456 11.136 12.458667 11.136 15.530667 11.136s4.053333-0.042667 15.317333-11.050667l7.722667-7.744c2.581333-2.538667 4.096-3.968 4.885333-4.522667 13.76-11.349333 28.501333-17.045333 44.629333-17.045333 20.949333 0 37.034667 6.421333 47.786667 19.114667 10.090667 11.797333 15.424 28.885333 15.424 49.408-0.021333 59.093333-71.04 142.592-129.813333 172.288l-5.226667 2.773333z m-73.322667-222.122667c-13.589333 0-23.424 3.242667-30.08 9.984-7.701333 7.744-11.797333 20.608-11.797333 37.162667 0.042667 33.322667 18.304 67.946667 54.421333 102.890667 18.112 17.493333 39.296 33.92 61.589334 47.658666 56.746667-31.402667 112.917333-105.578667 112.938666-150.549333 0-15.424-3.562667-27.712-10.261333-35.605333-6.72-7.893333-16.789333-11.584-31.573333-11.584-10.965333 0-21.269333 4.096-31.509334 12.544-0.789333 0.64-1.621333 1.472-2.858666 2.666666l-8.021334 8.021334c-11.733333 11.52-17.941333 17.088-30.186666 17.130666-12.181333 0-18.432-5.568-30.293334-17.109333l-7.978666-7.850667a50.133333 50.133333 0 0 0-3.050667-2.901333c-10.304-8.384-20.608-12.458667-31.338667-12.458667z" fill="#2c2c2c" p-id="6101"></path></svg>